<?xml version="1.0" encoding="UTF-8"?>
<svg version="1.1" xmlns="http://www.w3.org/2000/svg" width="1470" height="1070">
<path d="M0 0 C485.1 0 970.2 0 1470 0 C1470 353.1 1470 706.2 1470 1070 C984.9 1070 499.8 1070 0 1070 C0 716.9 0 363.8 0 0 Z " fill="none" transform="translate(0,0)"/>
<path d="M0 0 C-1.54991653 7.54959343 -3.61967093 14.92444452 -5.77636719 22.31933594 C-6.37137889 24.36256536 -6.9593864 26.40772156 -7.546875 28.453125 C-9.50443538 35.21851804 -11.6275835 41.87061355 -14.09765625 48.46972656 C-15.58577087 52.64256746 -16.69391466 56.90364961 -17.8125 61.1875 C-21.88091197 76.38817448 -26.07260081 91.55151715 -31.1875 106.4375 C-35.41606477 118.76276305 -38.95078634 131.30139332 -42.5612793 143.81811523 C-45.23831044 153.08265644 -47.99466083 162.31176773 -50.93800354 171.49563599 C-52.57947752 176.62107149 -54.12898203 181.76779321 -55.625 186.9375 C-57.32909419 192.81304578 -59.16535759 198.61582826 -61.203125 204.38671875 C-62.07310859 207.23975316 -62.56829964 210.05148655 -63 213 C-63.66 213 -64.32 213 -65 213 C-65.11867432 213.99193359 -65.23734863 214.98386719 -65.35961914 216.00585938 C-65.94505272 220.08451431 -67.04287141 223.97220806 -68.24609375 227.90625 C-68.46768661 228.64476196 -68.68927948 229.38327393 -68.91758728 230.14416504 C-69.6058384 232.43127645 -70.30173793 234.71592698 -71 237 C-71.20908997 237.68626465 -71.41817993 238.3725293 -71.63360596 239.07958984 C-72.87767857 243.1595237 -74.13223005 247.23618341 -75.3888855 251.31225586 C-80.00622353 266.30830211 -84.47864368 281.34314251 -88.86743164 296.4074707 C-89.37905049 298.16357961 -89.89068856 299.91968293 -90.40234375 301.67578125 C-90.66932571 302.5922493 -90.93630768 303.50871735 -91.21138 304.45295715 C-93.81529989 313.38304299 -96.43985265 322.30702065 -99.06640625 331.23046875 C-99.28894011 331.98657063 -99.51147396 332.7426725 -99.74075127 333.52168655 C-101.77195123 340.42286148 -103.80373837 347.32386342 -105.83639526 354.22460938 C-106.90791916 357.86242199 -107.97891423 361.50038996 -109.04958916 365.13845253 C-109.44566456 366.48388108 -109.84194271 367.82924997 -110.238451 369.17455101 C-112.87024703 378.1039994 -115.45574633 387.04528703 -118 396 C-122.14995519 395.16717101 -123.82461266 393.45876818 -126.75 390.375 C-129.69110398 387.34399328 -132.6063988 384.3750316 -135.8125 381.625 C-142.93583668 375.51317713 -149.74110231 369.03573359 -156.609375 362.640625 C-157.5219104 361.7911731 -157.5219104 361.7911731 -158.45288086 360.92456055 C-159.69386195 359.76536657 -160.93165787 358.60275338 -162.16625977 357.43676758 C-165.56403082 354.23355732 -169.00760238 351.10978656 -172.54296875 348.05859375 C-173.28699951 347.40157471 -174.03103027 346.74455566 -174.79760742 346.06762695 C-176.23474109 344.7999989 -177.68886079 343.55129949 -179.16137695 342.32495117 C-180.13337036 341.45640503 -180.13337036 341.45640503 -181.125 340.5703125 C-181.70507812 340.07289551 -182.28515625 339.57547852 -182.8828125 339.06298828 C-185.42696323 334.36498266 -182.79936497 327.79418167 -181.36204529 322.90979004 C-181.14846878 322.20737183 -180.93489227 321.50495361 -180.71484375 320.78125 C-180.3840255 319.66623108 -180.3840255 319.66623108 -180.04652405 318.52868652 C-179.34940857 316.1839853 -178.64362288 313.84200237 -177.9375 311.5 C-177.45970772 309.89861006 -176.98248879 308.29704894 -176.50585938 306.6953125 C-175.34385275 302.79486636 -174.17406973 298.89683118 -173 295 C-172.34 295 -171.68 295 -171 295 C-171.06316406 294.07316406 -171.12632812 293.14632813 -171.19140625 292.19140625 C-171.18205701 286.86100263 -169.48709251 281.99250117 -167.9375 276.9375 C-167.62240479 275.88473877 -167.30730957 274.83197754 -166.98266602 273.74731445 C-163.52165031 262.25502255 -159.86419663 250.82365391 -156.15869141 239.40820312 C-152.45983068 228.12820528 -152.45983068 228.12820528 -149.5625 216.625 C-148.05932854 209.55826102 -145.68787009 202.8013828 -143.33618164 195.98095703 C-143.03574951 195.10681152 -142.73531738 194.23266602 -142.42578125 193.33203125 C-142.15161377 192.54546143 -141.87744629 191.7588916 -141.5949707 190.94848633 C-140.9026537 189.02074776 -140.9026537 189.02074776 -141 187 C-141.56654297 187.67482422 -141.56654297 187.67482422 -142.14453125 188.36328125 C-147.45124938 194.56480899 -153.1945136 200.27157758 -159 206 C-160.66748045 207.66585249 -162.33399919 209.33266775 -164 211 C-165.03702143 212.03711594 -166.07409298 213.07418176 -167.11120605 214.11120605 C-167.6746019 214.6746019 -168.23799774 215.23799774 -168.81846619 215.81846619 C-236.6651427 283.6651427 -304.5118192 351.5118192 -477.55685425 524.55685425 C-478.34036633 525.34064831 -479.1238784 526.12444237 -479.93113327 526.93198776 C-481.17429291 528.17463394 -482.41833391 529.41640064 -483.66411209 530.65642166 C-485.81987228 532.80267386 -487.89116041 534.95199708 -489.8125 537.3125 C-490.534375 538.199375 -491.25625 539.08625 -492 540 C-495.86796606 539.4432308 -497.58543048 537.75408799 -500.265625 534.9921875 C-501.07386719 534.16976562 -501.88210938 533.34734375 -502.71484375 532.5 C-503.55144531 531.63375 -504.38804687 530.7675 -505.25 529.875 C-510.34120012 524.64792798 -515.42415483 519.55150057 -520.96777344 514.80517578 C-525.85631389 510.46280815 -530.34911847 505.68540611 -534.93359375 501.02734375 C-539.21502841 496.70427439 -543.56133087 492.56244428 -548.17773438 488.59960938 C-550.91798638 486.19417915 -553.45608811 483.60959468 -556 481 C-559.84850236 477.09850621 -563.7644768 473.39153636 -567.94140625 469.83984375 C-571.0699892 467.04370984 -573.98397609 464.03673816 -576.92944336 461.05102539 C-580.16395878 457.78956035 -583.51498982 454.74785101 -587.0078125 451.76953125 C-590.84548914 448.36077141 -594.40939751 444.66540671 -598 441 C-596.45981142 436.94783718 -593.93485159 435.16644322 -590.5 432.625 C-589.31844074 431.7390405 -588.13748489 430.85227586 -586.95703125 429.96484375 C-586.00111084 429.25110596 -586.00111084 429.25110596 -585.02587891 428.52294922 C-581.38250732 425.78405407 -577.78555182 422.98551305 -574.1875 420.1875 C-573.42542236 419.59565918 -572.66334473 419.00381836 -571.87817383 418.39404297 C-566.09496161 413.88819813 -560.39670622 409.28560146 -554.72338867 404.64257812 C-548.58284543 399.62887543 -542.31541639 394.79063264 -536 390 C-534.34568534 391.41306043 -532.69229414 392.82721302 -531.04296875 394.24609375 C-529.7589916 395.34839918 -528.47055362 396.44555123 -527.17578125 397.53515625 C-522.34886914 401.65371648 -517.89155016 406.07278513 -513.4362793 410.58300781 C-510.00251612 414.04348228 -506.4726689 417.31866479 -502.7421875 420.4609375 C-500.94939907 422.04470127 -499.36658874 423.73864212 -497.75 425.5 C-496.8425 426.325 -495.935 427.15 -495 428 C-490.35684544 427.59324244 -488.12738259 424.18732515 -485.25 420.875 C-481.29751321 416.44604905 -477.32277583 412.36752616 -472.75 408.56640625 C-470.28993636 406.36442965 -468.26462663 403.87543329 -466.2265625 401.28515625 C-465.82179688 400.86105469 -465.41703125 400.43695312 -465 400 C-464.34 400 -463.68 400 -463 400 C-462.72871025 399.40394833 -462.4574205 398.80789665 -462.17790985 398.19378281 C-461.01720725 396.03204741 -459.87790095 394.6265117 -458.15344238 392.8994751 C-457.57300674 392.31339981 -456.99257111 391.72732452 -456.39454651 391.12348938 C-455.75967819 390.49266953 -455.12480988 389.86184967 -454.47070312 389.21191406 C-453.80062729 388.53833359 -453.13055145 387.86475311 -452.44017029 387.17076111 C-450.22553349 384.94732646 -448.0036667 382.73128134 -445.78125 380.515625 C-444.24160957 378.97463768 -442.70226616 377.43335354 -441.16320801 375.89178467 C-437.93838404 372.66401234 -434.7099702 369.43988528 -431.47900391 366.21826172 C-427.32911175 362.07978296 -423.18828703 357.93236601 -419.05008698 353.78219986 C-415.87451254 350.59941544 -412.69421106 347.42138898 -409.51243591 344.24480438 C-407.98307782 342.71678418 -406.45521427 341.18726668 -404.92884827 339.65625763 C-402.80045316 337.52280943 -400.66579774 335.39583432 -398.52929688 333.27050781 C-397.89442856 332.63159103 -397.25956024 331.99267426 -396.60545349 331.33439636 C-392.22852992 327 -392.22852992 327 -390 327 C-389.79761719 326.45859375 -389.59523438 325.9171875 -389.38671875 325.359375 C-387.43766234 322.04323396 -384.66723279 319.76596797 -381.8125 317.25 C-377.40533052 313.28680489 -373.34454783 309.28189715 -369.5390625 304.7265625 C-367.50197247 302.44129906 -365.20760742 300.58004142 -362.844863 298.64324766 C-360.94968006 296.95517926 -359.35024591 295.18125241 -357.70875454 293.24709988 C-354.34041518 289.35040006 -350.81183992 285.67622683 -347.15992737 282.04640198 C-346.50874512 281.39507087 -345.85756287 280.74373977 -345.18664783 280.07267135 C-343.02727109 277.91398321 -340.86435306 275.75888011 -338.70141602 273.60375977 C-337.14353012 272.047795 -335.58587319 270.49160095 -334.02842712 268.93519592 C-330.68669553 265.59661487 -327.34341941 262.25959113 -323.99893379 258.923769 C-318.71544571 253.65383068 -313.43579868 248.38005551 -308.15672302 243.10569763 C-300.76158724 235.71788169 -293.36506046 228.33146149 -285.96704102 220.9465332 C-285.49848239 220.47880239 -285.02992377 220.01107158 -284.5471664 219.52916711 C-281.2189921 216.20689682 -277.89075149 212.88469296 -274.5625 209.5625 C-270.74840369 205.75533989 -266.93434357 201.94814353 -263.12036133 198.14086914 C-262.65025509 197.67159103 -262.18014885 197.20231292 -261.69579697 196.71881426 C-253.86960473 188.90628681 -246.04538089 181.0917905 -238.22251457 173.27593273 C-232.96867004 168.02708481 -227.71239368 162.7806878 -222.4542743 157.53612244 C-219.19575574 154.28503012 -215.93928058 151.03189708 -212.6833744 147.77818871 C-211.16683259 146.2635285 -209.64942198 144.74973764 -208.13110733 143.23685455 C-206.06884926 141.18174597 -204.00963371 139.12363769 -201.95118713 137.06471252 C-201.03619464 136.15511248 -201.03619464 136.15511248 -200.10271746 135.22713667 C-197.30270124 132.97911376 -197.30270124 132.97911376 -196 130 C-225.81899984 137.35520355 -255.55674337 144.97936039 -285.23828125 152.87109375 C-286.24249619 153.13770813 -287.24671112 153.40432251 -288.28135681 153.67901611 C-293.06323856 154.94928595 -297.84297651 156.22660076 -302.61865234 157.52001953 C-304.34342226 157.98340668 -306.06819428 158.44678603 -307.79296875 158.91015625 C-308.57094315 159.12345078 -309.34891754 159.3367453 -310.15046692 159.5565033 C-313.59053657 160.47645247 -316.409849 161 -320 161 C-320 161.66 -320 162.32 -320 163 C-321.90072266 163.38091797 -321.90072266 163.38091797 -323.83984375 163.76953125 C-325.53912181 164.11689748 -327.23833725 164.46457017 -328.9375 164.8125 C-330.18370117 165.0609668 -330.18370117 165.0609668 -331.45507812 165.31445312 C-332.69741211 165.5706543 -332.69741211 165.5706543 -333.96484375 165.83203125 C-334.7137085 165.98389893 -335.46257324 166.1357666 -336.23413086 166.29223633 C-337.14686768 166.52579834 -338.05960449 166.75936035 -339 167 C-339.671521 167.15828781 -340.34304199 167.31657562 -341.03491211 167.47966003 C-347.61932594 169.29624647 -351.39982082 172.58624473 -356.0703125 177.44921875 C-356.79564178 178.18066605 -357.52097107 178.91211334 -358.26828003 179.66572571 C-360.56834014 181.99255447 -362.8464314 184.33964244 -365.125 186.6875 C-366.66141647 188.24546713 -368.19916596 189.80212086 -369.73828125 191.35742188 C-375.77186338 197.48006671 -381.70854363 203.61969822 -387.33590698 210.1197052 C-389.81949696 212.9259674 -392.45449611 215.56039496 -395.125 218.1875 C-395.67559082 218.7343042 -396.22618164 219.2811084 -396.79345703 219.84448242 C-399.1077946 222.14274364 -401.4281665 224.43487516 -403.74804688 226.72753906 C-409.40975147 232.32874175 -415.01442563 237.88848467 -420.1796875 243.95703125 C-424.86428821 249.21464106 -430.01833123 254.06500537 -435.02978516 259.00927734 C-436.5324377 260.49359897 -438.03188165 261.98111204 -439.53125 263.46875 C-440.41361328 264.33951172 -441.29597656 265.21027344 -442.20507812 266.10742188 C-444.32346339 268.2501889 -446.30383869 270.48223702 -448.26977539 272.76538086 C-452.3589816 277.48012979 -456.73533878 281.87913906 -461.15234375 286.28515625 C-462.01130753 287.14507675 -462.8702713 288.00499725 -463.75526428 288.89097595 C-465.56177015 290.69815861 -467.36952462 292.50409392 -469.1784668 294.30883789 C-471.9293681 297.05438393 -474.67489221 299.80522546 -477.41992188 302.55664062 C-479.18457532 304.3206332 -480.94953897 306.0843155 -482.71484375 307.84765625 C-483.52654526 308.66138199 -484.33824677 309.47510773 -485.17454529 310.31349182 C-489.40629587 314.52808884 -493.70617479 318.59252854 -498.24989319 322.47007751 C-501.14564459 325.00150882 -503.81326446 327.75067621 -506.5 330.5 C-510.45745473 334.50205372 -514.44107411 338.37173097 -518.734375 342.015625 C-521.94162508 344.82473369 -525.02264321 347.7635385 -528.125 350.6875 C-538.68325743 360.60250779 -549.72556386 369.91064973 -561 379 C-561.56831543 379.45874512 -562.13663086 379.91749023 -562.72216797 380.39013672 C-576.81053529 391.75148159 -591.16873178 402.70257993 -605.78271484 413.37939453 C-607.13871916 414.37049304 -608.49351497 415.36325104 -609.84619141 416.35888672 C-625.74176826 428.05213132 -642.49670937 438.58386802 -659.28564453 448.93847656 C-660.88199455 449.9269314 -662.47062327 450.92782618 -664.05859375 451.9296875 C-673.88631689 458.08958679 -684.00457457 463.73315004 -694.12792969 469.38916016 C-696.74120577 470.85485173 -699.34448342 472.33659528 -701.9453125 473.82421875 C-715.90595102 481.74088733 -730.39297041 488.37983859 -745 495 C-745.98025146 495.44851318 -746.96050293 495.89702637 -747.97045898 496.35913086 C-753.59173309 498.92979082 -759.23695016 501.42291341 -764.9375 503.8125 C-765.73381836 504.14797852 -766.53013672 504.48345703 -767.35058594 504.82910156 C-771.69183238 506.64853233 -776.04709202 508.42488453 -780.42578125 510.15234375 C-781.76104858 510.6796106 -781.76104858 510.6796106 -783.12329102 511.2175293 C-784.82619873 511.88688488 -786.53101391 512.55141573 -788.23803711 513.21020508 C-791.87635328 514.63773755 -795.32037817 516.10623164 -798.68359375 518.10546875 C-801.89697902 519.9411482 -804.7680973 521.04287731 -808.3125 522.0625 C-810.00052734 522.55943359 -810.00052734 522.55943359 -811.72265625 523.06640625 C-813.73003751 523.63823476 -815.73776784 524.20884182 -817.74609375 524.77734375 C-818.57238281 525.01582031 -819.39867187 525.25429688 -820.25 525.5 C-820.95640625 525.6959375 -821.6628125 525.891875 -822.390625 526.09375 C-824.62419611 526.86948129 -826.63955681 527.76042948 -828.7734375 528.765625 C-835.04809917 531.59700126 -841.61905599 533.54951118 -848.18603516 535.57421875 C-850.39331656 536.25565472 -852.59712699 536.94755987 -854.80078125 537.640625 C-856.20814081 538.07874392 -857.61568634 538.51626598 -859.0234375 538.953125 C-859.67968109 539.15931458 -860.33592468 539.36550415 -861.01205444 539.57794189 C-863.7995236 540.43187379 -866.06382131 541 -869 541 C-869.17015625 541.70092773 -869.3403125 542.40185547 -869.515625 543.12402344 C-871.50645069 551.21704754 -873.70824848 559.23748528 -876 567.25 C-876.34289062 568.46429687 -876.68578125 569.67859375 -877.0390625 570.9296875 C-878.79225934 577.07256803 -880.69775442 583.04360883 -883 589 C-883.53044654 590.78288976 -884.03452501 592.57405511 -884.5 594.375 C-885.44425938 598.00590214 -886.47108724 601.60185955 -887.55273438 605.19384766 C-887.82355835 606.0939859 -888.09438232 606.99412415 -888.37341309 607.92153931 C-888.58018677 608.60743134 -888.78696045 609.29332336 -889 610 C-876.95104414 610.17105111 -864.90373753 610.27111347 -852.85351181 610.28240681 C-847.25683403 610.28984315 -841.6624588 610.32104275 -836.06640625 610.40795898 C-830.65795511 610.49106381 -825.25263257 610.50990507 -819.84363556 610.48558617 C-817.78800189 610.48736797 -815.7322514 610.51168734 -813.67717743 610.55968666 C-801.67189531 611.12985677 -801.67189531 611.12985677 -791.16662598 606.23446655 C-788.52866218 603.60849726 -786.29345058 600.78291169 -784.18813324 597.71838951 C-782.9508233 595.92887605 -781.63557346 594.22996347 -780.28045654 592.52827454 C-778.62816303 590.44817112 -777.01080576 588.36405732 -775.42578125 586.234375 C-773.43353739 583.56093298 -771.37755411 580.94332939 -769.30615234 578.33056641 C-759.51837514 565.89121234 -751.4652676 552.25166652 -743.29785156 538.72119141 C-742.1746954 536.86115148 -741.03790254 535.00929487 -739.8894043 533.16479492 C-738.48655131 530.81498445 -737.21848072 528.49629116 -735.97973633 526.0637207 C-729.63402515 514.12342908 -721.9452227 509.65214488 -709.8125 504.3125 C-708.0993453 503.51594401 -706.38874231 502.71387829 -704.68066406 501.90649414 C-702.1366582 500.70401593 -699.59200843 499.50405436 -697.03903198 498.32072449 C-690.24791321 495.16859853 -683.72582091 491.7011668 -677.25 487.9375 C-676.34813965 487.41575195 -675.4462793 486.89400391 -674.51708984 486.35644531 C-672.81047993 485.3669865 -671.10501304 484.37555269 -669.40087891 483.38183594 C-666.34318509 481.62196742 -663.24563551 479.9418753 -660.14379883 478.26147461 C-644.80161882 469.92403453 -629.9065359 460.56998608 -616 450 C-609.29238329 445 -609.29238329 445 -607 445 C-608.36457988 448.45320671 -609.79307973 451.87004129 -611.27734375 455.2734375 C-611.70853516 456.2634375 -612.13972656 457.2534375 -612.58398438 458.2734375 C-613.03064453 459.29695313 -613.47730469 460.32046875 -613.9375 461.375 C-614.8217826 463.4035726 -615.70590113 465.43221673 -616.58984375 467.4609375 C-616.98034912 468.35603027 -617.37085449 469.25112305 -617.77319336 470.17333984 C-618.67112721 472.24225091 -619.56046949 474.31489666 -620.44482422 476.38964844 C-622.02026509 480.04704555 -623.64486915 483.67968893 -625.29296875 487.3046875 C-625.6000174 487.98140503 -625.90706604 488.65812256 -626.22341919 489.35534668 C-629.52597616 496.62962045 -632.83976128 503.89879416 -636.16101074 511.16455078 C-636.88160253 512.74098293 -637.60151283 514.31772656 -638.32128906 515.89453125 C-650.4231032 542.32601808 -664.73391489 567.90793905 -681 592 C-681.51804199 592.76892578 -682.03608398 593.53785156 -682.56982422 594.33007812 C-686.34116468 599.91376652 -690.15883962 605.46417364 -694 611 C-694.4419873 611.64066406 -694.88397461 612.28132812 -695.33935547 612.94140625 C-702.08205719 622.69344341 -709.42083917 631.8872397 -717 641 C-717.48114258 641.58168945 -717.96228516 642.16337891 -718.45800781 642.76269531 C-724.89030434 650.52923134 -731.59281254 658.00122814 -738.47949219 665.36621094 C-740.00864073 667.00928448 -741.525592 668.66279465 -743.0390625 670.3203125 C-743.54574463 670.87396484 -744.05242676 671.42761719 -744.57446289 671.99804688 C-745.95811839 673.51087382 -747.34044189 675.02491873 -748.72265625 676.5390625 C-749.22956592 677.05393062 -749.73647558 677.56879873 -750.25874615 678.09926891 C-752.12372388 680.05929347 -752.12372388 680.05929347 -753.93690968 682.70032978 C-757.90244739 687.62745424 -761.25233221 691.02931365 -767.69229698 692.00113487 C-773.60981278 692.49879498 -779.52269769 692.36214678 -785.45385742 692.2487793 C-787.73131153 692.24567325 -790.00877664 692.24742447 -792.28622437 692.25364685 C-798.44544158 692.25679375 -804.60228628 692.19227874 -810.76095366 692.11533332 C-817.20569071 692.04641108 -823.65048655 692.04009495 -830.09553528 692.02705383 C-840.90538309 691.99678572 -851.71426141 691.92815336 -862.52368164 691.82983398 C-873.65254413 691.72871492 -884.78117067 691.65092673 -895.91040039 691.60424805 C-896.59750641 691.60135809 -897.28461243 691.59846813 -897.99253985 691.5954906 C-901.43988185 691.58113418 -904.88722552 691.56723363 -908.33457029 691.55355966 C-936.89029838 691.43970392 -965.44511521 691.24529429 -994 691 C-993.44361272 686.85606131 -992.86714444 683.23228716 -991.25 679.375 C-989.21476229 674.02334977 -987.89647832 668.63141319 -986.625 663.0625 C-984.88390538 655.50206512 -982.9195647 648.08016234 -980.63745117 640.66650391 C-978.91511169 635.06033371 -977.24898223 629.44109406 -975.62890625 623.8046875 C-975.3077182 622.68729691 -975.3077182 622.68729691 -974.9800415 621.54733276 C-974.53045851 619.98252607 -974.08095686 618.417696 -973.63153076 616.85284424 C-969.29450264 601.75925407 -964.82031313 586.71204658 -960.25 571.6875 C-955.26139674 555.29241519 -955.26139674 555.29241519 -950.5625 538.8125 C-947.35085038 527.20042212 -944.08825516 515.60312977 -940.76559448 504.02230835 C-940.13344984 501.81048017 -939.50605749 499.59728791 -938.88357544 497.38272095 C-938.00374152 494.25537589 -937.10729816 491.13323368 -936.20703125 488.01171875 C-935.81200409 486.58688675 -935.81200409 486.58688675 -935.40899658 485.13327026 C-932.95393136 476.73935755 -932.95393136 476.73935755 -929 474 C-926.51171875 473.03027344 -926.51171875 473.03027344 -923.6875 472.359375 C-922.09772339 471.96770142 -922.09772339 471.96770142 -920.47583008 471.56811523 C-919.32880615 471.29813721 -918.18178223 471.02815918 -917 470.75 C-914.5241081 470.13404318 -912.04886409 469.51547724 -909.57421875 468.89453125 C-908.30755371 468.5795166 -907.04088867 468.26450195 -905.73583984 467.93994141 C-871.50572721 459.32760749 -837.57928258 447.51414023 -805.125 433.625 C-803.4536499 432.91283325 -803.4536499 432.91283325 -801.74853516 432.1862793 C-798.49641396 430.79683031 -795.24737743 429.40049595 -792 428 C-791.11892578 427.62020996 -790.23785156 427.24041992 -789.33007812 426.84912109 C-779.43126901 422.56346775 -769.73584245 417.97052565 -760.12646484 413.07275391 C-757.88089655 411.93991498 -755.62387371 410.83300332 -753.36328125 409.73046875 C-727.25968928 396.95358522 -702.25051075 381.99374656 -678 366 C-677.36787598 365.58540527 -676.73575195 365.17081055 -676.08447266 364.74365234 C-654.4052313 350.51823597 -633.77916266 335.12705164 -613.85400391 318.53808594 C-611.35523232 316.46509924 -608.83399345 314.42025238 -606.3125 312.375 C-595.93043575 303.87488093 -585.89712548 295.06303009 -576.10546875 285.890625 C-573.75487316 283.69233734 -571.37342421 281.54148485 -568.9375 279.4375 C-558.51416069 270.43175561 -548.67106395 260.82370405 -538.9453125 251.078125 C-537.74769333 249.88118231 -536.549926 248.68438784 -535.35202026 247.48773193 C-532.86814884 245.00531849 -530.3860532 242.52114749 -527.90527344 240.03564453 C-524.74519754 236.86984108 -521.58060873 233.70859271 -518.41469002 230.54863358 C-515.95060518 228.08817949 -513.48892799 225.62532759 -511.02795029 223.16176605 C-509.86222302 221.99537809 -508.69577024 220.82971471 -507.52853775 219.66483307 C-502.05179385 214.19671514 -496.64769604 208.72356367 -491.61495972 202.83734131 C-488.61295208 199.42195418 -485.35847149 196.25683547 -482.125 193.0625 C-481.03276123 191.97594116 -481.03276123 191.97594116 -479.91845703 190.86743164 C-476.83943049 187.80457576 -473.75441677 184.74777689 -470.66992188 181.69042969 C-468.40284542 179.44155883 -466.13887034 177.18959762 -463.875 174.9375 C-463.18937988 174.26017822 -462.50375977 173.58285645 -461.79736328 172.88500977 C-457.90270059 169.00991105 -454.22311375 165.01916336 -450.63476562 160.85961914 C-448.29982515 158.20351974 -445.82943779 155.73534443 -443.3125 153.25 C-442.80630127 152.74758789 -442.30010254 152.24517578 -441.77856445 151.72753906 C-439.65540351 149.6204205 -437.52619158 147.51945787 -435.39746094 145.41796875 C-430.06661722 140.1492256 -424.80939297 134.88660724 -419.93603516 129.18505859 C-415.7685387 124.48151593 -411.33208396 120.02845837 -406.9128418 115.56274414 C-405.76256337 114.39586342 -404.61768259 113.22363713 -403.47827148 112.04614258 C-401.80382658 110.31635606 -400.11298477 108.60413834 -398.41796875 106.89453125 C-397.67524971 106.11780815 -397.67524971 106.11780815 -396.91752625 105.32539368 C-388.42238264 96.87894665 -377.24981943 94.45757322 -365.98828125 91.70703125 C-364.42566602 91.3161275 -362.86331895 90.92415044 -361.30122375 90.53117371 C-357.15996507 89.49222309 -353.01538694 88.46717034 -348.87000275 87.44482422 C-344.59463205 86.38776947 -340.32255706 85.31757548 -336.05029297 84.24804688 C-330.16953676 82.77673265 -324.28798922 81.30868642 -318.40519333 79.84554863 C-306.04142509 76.769666 -293.69975601 73.61102584 -281.36660767 70.41470337 C-273.4997834 68.37740984 -265.63133571 66.41954412 -257.68505859 64.7109375 C-255.20728652 64.05488437 -253.26103338 63.173251 -251 62 C-248.59452501 61.4861544 -246.17522521 61.0356457 -243.75 60.625 C-237.15385521 59.47136272 -230.69641718 58.00630606 -224.22949219 56.27001953 C-220.98241151 55.41530518 -218.39687538 55 -215 55 C-215 54.34 -215 53.68 -215 53 C-201.3667426 49.55580866 -201.3667426 49.55580866 -195 50 C-195 49.34 -195 48.68 -195 48 C-194.09459473 47.78384033 -193.18918945 47.56768066 -192.25634766 47.3449707 C-171.0186692 42.31484777 -171.0186692 42.31484777 -149.94213867 36.66015625 C-142.35874502 34.49849578 -134.68763823 32.7468246 -127 31 C-126.04738281 30.77183594 -125.09476563 30.54367188 -124.11328125 30.30859375 C-120.34833608 29.41869762 -116.87853109 28.74977219 -113 29 C-113 28.34 -113 27.68 -113 27 C-106.60441254 25.43649257 -100.20856819 23.87403969 -93.8125 22.3125 C-92.87028595 22.08246277 -91.9280719 21.85242554 -90.95730591 21.61541748 C-80.62335942 19.09322718 -70.28916677 16.57368285 -59.9375 14.125 C-49.49296118 11.64668814 -39.06196303 9.16647209 -28.734375 6.23046875 C-27.62416992 5.91513184 -26.51396484 5.59979492 -25.37011719 5.27490234 C-23.17117582 4.64695198 -20.97381918 4.01341759 -18.77832031 3.37353516 C-12.55085134 1.58990147 -6.52547391 0 0 0 Z " fill="#010101" transform="translate(1278,128)"/>
<path d="M0 0 C28.06846372 -0.28062755 56.13671646 -0.49208156 84.20630169 -0.62174606 C97.24030713 -0.68355878 110.27343969 -0.76779316 123.30688477 -0.90527344 C134.67016202 -1.02507894 146.032807 -1.10234521 157.3966983 -1.12906194 C163.41126002 -1.14467396 169.42401337 -1.18122172 175.437994 -1.26876068 C181.10616076 -1.35059274 186.77178551 -1.37526543 192.44048691 -1.35729218 C194.51375363 -1.36057696 196.58711074 -1.3842292 198.65986443 -1.4304657 C215.91675267 -1.79632926 215.91675267 -1.79632926 222.90781099 4.20204043 C225.45154528 6.67610257 227.72387178 9.27531887 230 12 C231.25755776 13.28397165 232.52438529 14.5591863 233.8125 15.8125 C234.33457031 16.34488281 234.85664062 16.87726563 235.39453125 17.42578125 C237.83647265 19.82019095 240.44111463 22.01849876 243.03125 24.25 C244.93023071 25.93798286 246.72005988 27.68769734 248.5 29.5 C250.79015137 31.83123032 253.13455601 34.00968564 255.625 36.125 C260.05195871 39.93183998 264.10621403 44.07884084 268.20800781 48.22753906 C271.75948724 51.80386849 275.39917595 55.19678961 279.2421875 58.4609375 C281.69414248 60.6077603 283.94395999 62.93389591 286.2265625 65.2578125 C288.04800415 67.04715827 289.93714279 68.71288532 291.875 70.375 C295.70295187 73.67088134 299.22764298 77.21015354 302.7734375 80.8046875 C305.44633174 83.44006743 308.25368303 85.87766489 311.1015625 88.3203125 C313.58959026 90.52165393 315.89194077 92.88088515 318.21875 95.25 C320.08389674 97.08242487 322.01927746 98.79353135 324 100.5 C327.22956367 103.28239332 330.23322653 106.21019429 333.21875 109.25 C335.08389674 111.08242487 337.01927746 112.79353135 339 114.5 C342.2253516 117.27876445 345.22558422 120.20225395 348.20703125 123.23828125 C350.13793229 125.13552824 352.14223545 126.91443332 354.1875 128.6875 C354.85007812 129.265 355.51265625 129.8425 356.1953125 130.4375 C357.64592137 131.69343842 359.10315778 132.94172005 360.5625 134.1875 C362 136 362 136 361.96875 137.83203125 C360.50933011 141.09807173 357.8266029 142.58016211 354.9375 144.5 C353.64967338 145.38603535 352.36326821 146.27413949 351.078125 147.1640625 C350.40587891 147.6271582 349.73363281 148.09025391 349.04101562 148.56738281 C345.69208443 150.91804409 342.44478547 153.39975359 339.1875 155.875 C331.60825849 161.59625932 323.90759538 167.12737399 316.10351562 172.53759766 C314.6844503 173.52415769 313.26915285 174.51615664 311.85742188 175.51318359 C309.80923221 176.95888141 307.75018764 178.38759202 305.6875 179.8125 C305.07124756 180.25158691 304.45499512 180.69067383 303.82006836 181.14306641 C299.62839657 183.99769396 299.62839657 183.99769396 296.87109375 184.0078125 C294.35815698 182.65428914 292.47025598 181.00419488 290.375 179.0625 C289.4984375 178.25167969 288.621875 177.44085938 287.71875 176.60546875 C284.20380558 173.23698035 280.77650595 169.78768742 277.35546875 166.32421875 C275.35637972 164.35165163 273.32673916 162.50383514 271.1875 160.6875 C266.85827705 156.99053679 262.89449524 152.95068842 258.91870117 148.8815918 C256.07349529 145.99051684 253.16785797 143.24156565 250.09375 140.59375 C245.13237046 136.30654835 240.58859301 131.63915147 236 126.9609375 C232.11455668 123.02996164 228.12472585 119.32141914 223.9375 115.71484375 C220.81496222 112.951146 217.91578503 109.97849008 215 107 C210.77581261 102.726564 206.5255365 98.59577601 201.93359375 94.71484375 C198.59279151 91.75199086 195.5102558 88.52829149 192.39453125 85.33203125 C191.60433594 84.56246094 190.81414062 83.79289062 190 83 C189.37162231 82.29792419 188.74324463 81.59584839 188.0958252 80.87249756 C183.26318515 77.94949445 178.6068044 78.5615243 173.07226562 78.70800781 C171.2590683 78.73105232 171.2590683 78.73105232 169.40924072 78.75456238 C166.78369954 78.78876092 164.15918855 78.8298491 161.53401184 78.88092804 C157.37151748 78.95881964 153.20937245 78.99305861 149.04626465 79.01800537 C147.61756102 79.02709963 146.18885772 79.03624387 144.76015472 79.04543686 C144.04469577 79.05002773 143.32923681 79.0546186 142.59209728 79.05934858 C132.90672423 79.1252375 123.22288931 79.22791229 113.5390625 79.41455078 C106.99841668 79.54025892 100.45983552 79.60796582 93.91795111 79.61176753 C90.46162494 79.61619617 87.01119863 79.64943849 83.55635071 79.75461578 C60.96808695 80.41726257 60.96808695 80.41726257 54.55395508 74.6126709 C51.65071453 71.37554128 49.37595123 67.91205877 47.25079346 64.12836456 C45.10708745 60.48060971 42.46257084 57.21415789 39.875 53.875 C38.87867453 52.53987198 37.88482688 51.20288784 36.89453125 49.86328125 C34.17608069 46.21538382 31.38543116 42.62989553 28.5625 39.0625 C23.91050727 33.1819019 19.33640084 27.24526871 14.79443359 21.27929688 C12.19954559 17.87150535 9.59557244 14.47266396 6.953125 11.1015625 C6.48463135 10.50158447 6.0161377 9.90160645 5.53344727 9.28344727 C4.26910131 7.66683659 2.9999485 6.05398863 1.73046875 4.44140625 C0 2 0 2 0 0 Z " fill="#020101" transform="translate(284,293)"/>
<path d="M0 0 C1.125 1.625 1.125 1.625 2 4 C1.1292439 7.55558739 0.03663351 9.94504974 -2 13 C73.9 13 149.8 13 228 13 C228 13.33 228 13.66 228 14 C151.77 14 75.54 14 -3 14 C-2.26962189 8.88735324 -1.47363284 4.81386728 0 0 Z " fill="#1A1A1A" transform="translate(287,805)"/>
<path d="M0 0 C0 3 0 3 -1.6875 5.015625 C-2.450625 5.75296875 -3.21375 6.4903125 -4 7.25 C-4.82113281 8.0440625 -5.64226563 8.838125 -6.48828125 9.65625 C-11.82642655 14.63741203 -17.36927237 19.35464971 -23 24 C-23.66 23.67 -24.32 23.34 -25 23 C-16.6839571 15.31436681 -8.35291299 7.64554919 0 0 Z " fill="#D4D3D4" transform="translate(761,467)"/>
<path d="M0 0 C1.125 1.625 1.125 1.625 2 4 C1.1292439 7.55558739 0.03663351 9.94504974 -2 13 C6.25 13 14.5 13 23 13 C23 13.33 23 13.66 23 14 C14.42 14 5.84 14 -3 14 C-2.26962189 8.88735324 -1.47363284 4.81386728 0 0 Z " fill="#1B1C1B" transform="translate(287,805)"/>
<path d="M0 0 C-6.625 3 -6.625 3 -10 3 C-10 3.66 -10 4.32 -10 5 C-11.41543415 5.19658808 -12.83244031 5.38187546 -14.25 5.5625 C-15.03890625 5.66691406 -15.8278125 5.77132812 -16.640625 5.87890625 C-19.00532874 6.00027349 -20.7511037 5.69633257 -23 5 C-21.87980469 4.65066406 -20.75960938 4.30132813 -19.60546875 3.94140625 C-18.13280778 3.48178595 -16.66015179 3.0221497 -15.1875 2.5625 C-14.44951172 2.33240234 -13.71152344 2.10230469 -12.95117188 1.86523438 C-3.49899945 -1.08589638 -3.49899945 -1.08589638 0 0 Z " fill="#333334" transform="translate(413,586)"/>
<path d="M0 0 C-1.2491742 3.45925163 -2.67527795 6.14693203 -5 9 C-5 8.34 -5 7.68 -5 7 C-7.31 7.33 -9.62 7.66 -12 8 C-10.33333333 6.66666667 -8.66666667 5.33333333 -7 4 C-5.6696875 2.88625 -5.6696875 2.88625 -4.3125 1.75 C-2 0 -2 0 0 0 Z " fill="#2A2A2A" transform="translate(671,573)"/>
<path d="M0 0 C1.0625 1.8125 1.0625 1.8125 2 4 C1.67 4.99 1.34 5.98 1 7 C0.7834375 8.299375 0.7834375 8.299375 0.5625 9.625 C0.2840625 10.800625 0.2840625 10.800625 0 12 C-0.99 12.495 -0.99 12.495 -2 13 C-2.72693904 14.97888961 -3.39816251 16.97954558 -4 19 C-5.46726798 15.18510326 -4.43336419 12.70988378 -3 9 C-2.34 9 -1.68 9 -1 9 C-1.020625 7.88625 -1.04125 6.7725 -1.0625 5.625 C-1 2 -1 2 0 0 Z " fill="#404040" transform="translate(1108,414)"/>
<path d="M0 0 C0.33 0.99 0.66 1.98 1 3 C-0.29296875 4.9375 -0.29296875 4.9375 -2.1875 7 C-2.79980469 7.680625 -3.41210938 8.36125 -4.04296875 9.0625 C-5.92077226 10.92156295 -7.84767281 12.47284989 -10 14 C-10.66 13.67 -11.32 13.34 -12 13 C-11.30132813 12.31292969 -10.60265625 11.62585938 -9.8828125 10.91796875 C-8.97273438 10.01691406 -8.06265625 9.11585938 -7.125 8.1875 C-6.22007813 7.29417969 -5.31515625 6.40085937 -4.3828125 5.48046875 C-1.90168486 3.04361667 -1.90168486 3.04361667 0 0 Z " fill="#EBEBEB" transform="translate(1115,336)"/>
<path d="M0 0 C0.66 0.33 1.32 0.66 2 1 C-0.57784846 3.64752004 -2.91648098 5.94432065 -6 8 C-6.99 8 -7.98 8 -9 8 C-9.33 8.99 -9.66 9.98 -10 11 C-10.99 10.34 -11.98 9.68 -13 9 C-8.71 6.03 -4.42 3.06 0 0 Z " fill="#262626" transform="translate(656,582)"/>
<path d="M0 0 C0.66 0.66 1.32 1.32 2 2 C1.278125 2.556875 0.55625 3.11375 -0.1875 3.6875 C-2.97865112 5.98244648 -5.47974967 8.4134273 -8 11 C-9 12 -10 13 -11 14 C-11.66 13.67 -12.32 13.34 -13 13 C-8.71 8.71 -4.42 4.42 0 0 Z " fill="#F4F4F5" transform="translate(1009,443)"/>
<path d="M0 0 C4.95 0 9.9 0 15 0 C12.09933491 1.93377673 11.20923972 2.27507614 7.9375 2.5625 C4.22018139 2.74586541 4.22018139 2.74586541 2 4 C1.34 2.68 0.68 1.36 0 0 Z " fill="#0A0A0A" transform="translate(284,294)"/>
<path d="M0 0 C-5.37815126 4.03361345 -5.37815126 4.03361345 -8.3125 3.875 C-10 3 -10 3 -11 1 C-3.57142857 -1.42857143 -3.57142857 -1.42857143 0 0 Z " fill="#414242" transform="translate(1272,130)"/>
<path d="M0 0 C2 4 2 4 1.3125 7.125 C0 10 0 10 -3 12 C-2.01 8.04 -1.02 4.08 0 0 Z " fill="#2B2B2C" transform="translate(287,805)"/>
<path d="M0 0 C2 3 2 3 1.8125 6.0625 C1 9 1 9 -2 11 C-1.34 7.37 -0.68 3.74 0 0 Z " fill="#202020" transform="translate(1134,325)"/>
<path d="M0 0 C0.66 0.33 1.32 0.66 2 1 C-0.66666667 3.66666667 -3.33333333 6.33333333 -6 9 C-6 5 -6 5 -4.6875 3.515625 C-3.125 2.34375 -1.5625 1.171875 0 0 Z " fill="#212121" transform="translate(687,561)"/>
<path d="M0 0 C0.66 0.33 1.32 0.66 2 1 C1.01 3.64 0.02 6.28 -1 9 C-1.66 8.34 -2.32 7.68 -3 7 C-3.99 7 -4.98 7 -6 7 C-4.02 4.69 -2.04 2.38 0 0 Z " fill="#D3D3D3" transform="translate(1137,314)"/>
<path d="M0 0 C0.66 0.33 1.32 0.66 2 1 C-0.31 3.64 -2.62 6.28 -5 9 C-5.99 8.67 -6.98 8.34 -8 8 C-5.36 5.36 -2.72 2.72 0 0 Z " fill="#202020" transform="translate(705,411)"/>
<path d="M0 0 C3.35595828 0.59927826 5.37801226 1.84622436 8 4 C7.67 4.99 7.34 5.98 7 7 C5.83040013 6.02433888 4.66438823 5.044375 3.5 4.0625 C2.8503125 3.51722656 2.200625 2.97195313 1.53125 2.41015625 C1.0259375 1.94480469 0.520625 1.47945313 0 1 C0 0.67 0 0.34 0 0 Z " fill="#191A19" transform="translate(500,400)"/>
<path d="M0 0 C0.66 0.66 1.32 1.32 2 2 C1.625 5.125 1.625 5.125 1 8 C0.01 8.33 -0.98 8.66 -2 9 C-1.125 2.25 -1.125 2.25 0 0 Z " fill="#343535" transform="translate(1118,380)"/>
<path d="M0 0 C-0.33 1.98 -0.66 3.96 -1 6 C-1.33 5.34 -1.66 4.68 -2 4 C-4.02463255 3.34786708 -4.02463255 3.34786708 -6 3 C-6 2.34 -6 1.68 -6 1 C-3.92446352 0.4465236 -2.15634036 0 0 0 Z " fill="#151414" transform="translate(1278,128)"/>
<path d="M0 0 C-2.17424117 2.50037734 -3.73045798 3.43628586 -7 4 C-7 3.01 -7 2.02 -7 1 C-3.375 -1.125 -3.375 -1.125 0 0 Z " fill="#111011" transform="translate(506,633)"/>
<path d="M0 0 C-0.33 0.66 -0.66 1.32 -1 2 C-3.64 1.67 -6.28 1.34 -9 1 C-5.64919071 -1.10976881 -3.77897651 -1.0497157 0 0 Z M-7 2 C-5 3 -5 3 -5 3 Z " fill="#D1D0D0" transform="translate(1001,280)"/>
<path d="M0 0 C0.66 0.33 1.32 0.66 2 1 C1.360625 1.103125 0.72125 1.20625 0.0625 1.3125 C-0.9584375 1.6528125 -0.9584375 1.6528125 -2 2 C-2.33 2.99 -2.66 3.98 -3 5 C-4.65 4.67 -6.3 4.34 -8 4 C-5.31143836 2.20762558 -3.0466145 1.01553817 0 0 Z " fill="#404040" transform="translate(421,581)"/>
<path d="M0 0 C0.66 0.33 1.32 0.66 2 1 C1.67 1.99 1.34 2.98 1 4 C-1.97 4 -4.94 4 -8 4 C-5.31143836 2.20762558 -3.0466145 1.01553817 0 0 Z " fill="#4B4B4B" transform="translate(438,575)"/>
<path d="M0 0 C-0.33 0.99 -0.66 1.98 -1 3 C-4.3 3 -7.6 3 -11 3 C-6.9903514 0.32690093 -4.82843714 0 0 0 Z " fill="#515151" transform="translate(360,600)"/>
<path d="M0 0 C0.33 1.32 0.66 2.64 1 4 C-0.65 5.32 -2.3 6.64 -4 8 C-4.66 7.67 -5.32 7.34 -6 7 C-4.02 4.69 -2.04 2.38 0 0 Z " fill="#1C1C1D" transform="translate(906,435)"/>
<path d="M0 0 C-0.33 0.99 -0.66 1.98 -1 3 C-3.31 2.67 -5.62 2.34 -8 2 C-8 1.67 -8 1.34 -8 1 C-5.23735711 0.40267181 -2.83967231 0 0 0 Z M-7 3 C-5 4 -5 4 -5 4 Z " fill="#2D2E2E" transform="translate(1261,132)"/>
</svg>
